HIERARCHY
ROOT Hips
{
	OFFSET 0.00000 0.00000 0.00000
	CHANNELS 6 Xposition Yposition Zposition Zrotation Yrotation Xrotation 
	JOINT LHipJoint
	{
		OFFSET 0 0 0
		CHANNELS 3 Zrotation Yrotation Xrotation
		JOINT LeftUpLeg
		{
			OFFSET 1.64577 -1.42384 0.94276
			CHANNELS 3 Zrotation Yrotation Xrotation
			JOINT LeftLeg
			{
				OFFSET 2.11538 -5.81197 0.00000
				CHANNELS 3 Zrotation Yrotation Xrotation
				JOINT LeftFoot
				{
					OFFSET 2.36541 -6.49893 0.00000
					CHANNELS 3 Zrotation Yrotation Xrotation
					JOINT LeftToeBase
					{
						OFFSET 0.17759 -0.48793 1.73865
						CHANNELS 3 Zrotation Yrotation Xrotation
						End Site
						{
							OFFSET 0.00000 -0.00000 0.91205
						}
					}
				}
			}
		}
	}
	JOINT RHipJoint
	{
		OFFSET 0 0 0
		CHANNELS 3 Zrotation Yrotation Xrotation
		JOINT RightUpLeg
		{
			OFFSET -1.43750 -1.42384 0.94276
			CHANNELS 3 Zrotation Yrotation Xrotation
			JOINT RightLeg
			{
				OFFSET -2.10480 -5.78291 0.00000
				CHANNELS 3 Zrotation Yrotation Xrotation
				JOINT RightFoot
				{
					OFFSET -2.34880 -6.45329 0.00000
					CHANNELS 3 Zrotation Yrotation Xrotation
					JOINT RightToeBase
					{
						OFFSET -0.22842 -0.62757 1.80469
						CHANNELS 3 Zrotation Yrotation Xrotation
						End Site
						{
							OFFSET -0.00000 -0.00000 0.95886
						}
					}
				}
			}
		}
	}
	JOINT LowerBack
	{
		OFFSET 0 0 0
		CHANNELS 3 Zrotation Yrotation Xrotation
		JOINT Spine
		{
			OFFSET 0.06217 1.93758 -0.49272
			CHANNELS 3 Zrotation Yrotation Xrotation
			JOINT Spine1
			{
				OFFSET -0.03114 2.03621 -0.05830
				CHANNELS 3 Zrotation Yrotation Xrotation
				JOINT Neck
				{
					OFFSET 0 0 0
					CHANNELS 3 Zrotation Yrotation Xrotation
					JOINT Neck1
					{
						OFFSET 0.04421 1.41010 0.26562
						CHANNELS 3 Zrotation Yrotation Xrotation
						JOINT Head
						{
							OFFSET -0.13407 1.43847 0.06181
							CHANNELS 3 Zrotation Yrotation Xrotation
							End Site
							{
								OFFSET -0.04980 1.45844 -0.00689
							}
						}
					}
				}
				JOINT LeftShoulder
				{
					OFFSET 0 0 0
					CHANNELS 3 Zrotation Yrotation Xrotation
					JOINT LeftArm
					{
						OFFSET 2.18382 1.47753 -0.35694
						CHANNELS 3 Zrotation Yrotation Xrotation
						JOINT LeftForeArm
						{
							OFFSET 5.05460 -0.00000 0.00000
							CHANNELS 3 Zrotation Yrotation Xrotation
							JOINT LeftHand
							{
								OFFSET 3.39013 -0.00000 0.00000
								CHANNELS 3 Zrotation Yrotation Xrotation
								JOINT LeftFingerBase
								{
									OFFSET 0 0 0
									CHANNELS 3 Zrotation Yrotation Xrotation
									JOINT LeftHandIndex1
									{
										OFFSET 0.57242 -0.00000 -0.00000
										CHANNELS 3 Zrotation Yrotation Xrotation
										End Site
										{
											OFFSET 0.46150 -0.00000 -0.00000
										}
									}
								}
								JOINT LThumb
								{
									OFFSET 0 0 0
									CHANNELS 3 Zrotation Yrotation Xrotation
									End Site
									{
										OFFSET 0.46855 -0.00000 0.46855
									}
								}
							}
						}
					}
				}
				JOINT RightShoulder
				{
					OFFSET 0 0 0
					CHANNELS 3 Zrotation Yrotation Xrotation
					JOINT RightArm
					{
						OFFSET -2.06033 1.72839 -0.47437
						CHANNELS 3 Zrotation Yrotation Xrotation
						JOINT RightForeArm
						{
							OFFSET -5.07010 -0.00000 0.00000
							CHANNELS 3 Zrotation Yrotation Xrotation
							JOINT RightHand
							{
								OFFSET -3.14957 -0.00000 -0.00000
								CHANNELS 3 Zrotation Yrotation Xrotation
								JOINT RightFingerBase
								{
									OFFSET 0 0 0
									CHANNELS 3 Zrotation Yrotation Xrotation
									JOINT RightHandIndex1
									{
										OFFSET -0.71819 -0.00000 -0.00000
										CHANNELS 3 Zrotation Yrotation Xrotation
										End Site
										{
											OFFSET -0.57902 -0.00000 -0.00000
										}
									}
								}
								JOINT RThumb
								{
									OFFSET 0 0 0
									CHANNELS 3 Zrotation Yrotation Xrotation
									End Site
									{
										OFFSET -0.58786 -0.00000 0.58786
									}
								}
							}
						}
					}
				}
			}
		}
	}
}
MOTION
Frames: 10
Frame Time: .0083333
6.8211 15.0887 0.0670 -198.1030 76.0086 -190.7240 0.0000 0.0000 0.0000 -23.9825 -18.7921 -23.5799 11.5850 18.2097 64.6673 1.5813 9.1409 -28.5957 1.3175 -7.2700 -20.5177 0.0000 0.0000 0.0000 19.9153 13.8985 -26.9925 -5.2327 -13.6411 41.8184 -0.8754 -12.8270 -26.5514 -2.4007 9.6550 -27.8666 -1.4381 -1.9276 22.8995 0.2680 -2.0379 8.2272 1.6021 -0.7099 -3.6873 8.3091 4.3258 -13.5493 -11.0780 5.2481 2.7507 -4.3816 2.2442 3.5444 -0.0000 0.0000 0.0000 -71.2875 11.9769 27.6199 120.1865 -56.2600 -85.8140 -0.0000 0.0000 -19.7108 33.8690 10.1879 6.7703 -7.1250 0.0000 -0.0000 6.1657 42.1113 -0.4413 -0.0000 0.0000 0.0000 62.4914 -26.8011 44.8059 -83.5422 59.8418 -54.4103 0.0000 -0.0000 -24.1418 -14.1977 8.0495 -2.0289 7.1250 -0.0000 -0.0000 9.1628 -21.7188 5.1868
6.9625 15.0086 0.0880 -188.8240 76.8088 -180.9790 0.0000 0.0000 0.0000 -20.5312 -19.3900 -26.0835 12.0256 18.4014 66.0698 1.5524 8.5951 -28.0195 1.5724 -7.9119 -22.4468 0.0000 0.0000 0.0000 22.6712 14.1556 -27.9308 -5.5380 -13.9652 43.0980 -1.0345 -12.2881 -27.2430 -2.3425 9.5458 -27.5181 0.6398 -2.0720 23.1664 1.0728 -1.7443 8.0056 1.2207 -0.5573 -4.1188 8.6896 4.3165 -13.0491 -11.6225 5.2152 2.2461 -4.6247 2.2341 3.3386 -0.0000 -0.0000 0.0000 -73.2592 11.5489 27.6610 116.4643 -57.1808 -82.7018 -0.0000 0.0000 -21.4661 34.1310 10.8390 7.2642 -7.1250 0.0000 -0.0000 6.4097 42.9133 -0.3315 -0.0000 -0.0000 0.0000 64.5697 -25.6664 44.7705 -82.6523 59.7950 -53.6411 0.0000 -0.0000 -23.6450 -15.4065 8.2923 -2.2759 7.1250 -0.0000 -0.0000 8.2819 -21.4181 4.7343
7.1362 14.9180 0.0927 -189.0930 77.0739 -181.1710 0.0000 0.0000 0.0000 -20.1476 -20.2400 -27.0614 12.3602 18.5388 67.1259 1.6327 7.6945 -27.9747 1.7141 -8.2432 -23.4553 0.0000 0.0000 0.0000 22.9175 13.2359 -28.5114 -5.9290 -14.3592 44.6962 -1.2653 -11.0052 -27.8124 -2.4671 9.7779 -28.2605 0.6165 -2.0773 23.5228 1.3229 -1.7022 8.2248 1.4980 -0.5268 -4.0488 9.0302 4.4000 -13.5570 -12.3767 5.2851 1.9446 -4.9076 2.2382 3.3735 -0.0000 0.0000 0.0000 -75.5117 10.5020 27.5537 112.9832 -57.9068 -79.7641 -0.0000 0.0000 -24.4702 36.2543 13.8956 9.9883 -7.1250 0.0000 -0.0000 8.4583 46.8575 0.3904 -0.0000 0.0000 0.0000 66.4804 -23.0468 44.2280 -79.6527 59.5915 -51.0512 0.0000 -0.0000 -23.1394 -16.3267 8.8014 -2.5663 7.1250 -0.0000 -0.0000 7.6068 -20.8499 4.4399
7.3120 14.8100 0.0914 -187.4720 77.5438 -179.4990 0.0000 0.0000 0.0000 -19.1923 -21.0762 -28.2874 12.7535 18.6914 68.3583 1.7458 6.7235 -28.1446 1.8172 -8.4745 -24.1647 0.0000 0.0000 0.0000 23.5797 12.6023 -29.0676 -6.3633 -14.7714 46.4230 -1.4710 -9.7590 -28.2860 -2.6611 10.1251 -29.3826 0.8147 -2.0899 23.7502 1.7091 -1.6308 8.3004 1.7879 -0.4887 -4.0742 9.6707 4.6180 -13.3011 -13.4176 5.5273 1.3076 -5.3271 2.3497 3.2270 0.0000 0.0000 0.0000 -77.9078 9.8312 27.0938 109.8976 -58.4499 -77.1421 -0.0000 0.0000 -27.8864 36.6488 15.1568 11.0080 -7.1250 0.0000 -0.0000 8.8695 48.4336 0.7567 0.0000 0.0000 0.0000 68.1521 -19.9557 43.9937 -75.3428 59.1725 -47.3417 0.0000 -0.0000 -22.4616 -16.8608 9.1676 -2.7645 7.1250 -0.0000 -0.0000 7.2175 -20.4431 4.2756
7.4921 14.7014 0.0804 -183.4030 78.0651 -175.3980 0.0000 0.0000 0.0000 -17.6815 -21.8932 -29.6890 13.1414 18.8326 69.5642 1.8150 6.2308 -28.3241 1.9723 -8.8081 -25.1968 0.0000 0.0000 0.0000 24.7263 12.0031 -29.6802 -6.8629 -15.2154 48.3541 -1.6640 -8.5590 -28.7547 -2.8037 10.3704 -30.1846 1.6052 -2.1326 23.8099 2.2201 -1.4579 8.4099 1.8434 -0.3946 -3.9957 10.4323 4.8710 -13.1063 -14.7272 5.7995 0.5198 -5.8525 2.4754 3.0713 -0.0000 0.0000 0.0000 -80.2586 9.1032 26.4501 106.6941 -58.9203 -74.4051 -0.0000 0.0000 -30.8097 36.6211 15.9913 11.5717 -7.1250 0.0000 -0.0000 8.8495 49.4245 0.9723 -0.0000 0.0000 0.0000 69.2010 -16.1934 43.7695 -70.2598 58.4752 -42.9920 0.0000 -0.0000 -20.3071 -17.8868 9.2100 -2.9570 7.1250 -0.0000 -0.0000 6.4821 -20.3399 3.8492
7.6735 14.5982 0.0623 -177.9110 78.6056 -169.8990 0.0000 0.0000 0.0000 -15.9280 -22.5010 -31.4135 13.5751 18.9801 70.9025 1.8368 6.0795 -28.3839 2.1165 -9.1046 -26.1231 0.0000 0.0000 0.0000 26.0524 11.5129 -30.2052 -7.3649 -15.6317 50.2414 -1.7831 -7.5411 -28.8916 -2.9305 10.5816 -30.8816 2.6783 -2.1499 23.8233 2.8189 -1.1849 8.4788 1.8067 -0.2484 -3.9417 10.9834 5.0908 -13.0170 -15.9940 6.0567 -0.1440 -6.3324 2.5940 2.9690 -0.0000 0.0000 0.0000 -82.5486 8.6620 25.8157 103.6260 -59.2867 -71.7722 -0.0000 0.0000 -33.4215 36.4610 16.4309 11.8053 -7.1250 0.0000 -0.0000 8.6858 49.9172 1.0600 -0.0000 0.0000 0.0000 69.3998 -12.3874 43.1567 -66.8820 57.8810 -40.1216 0.0000 -0.0000 -18.3137 -17.6179 9.4386 -2.9811 7.1250 -0.0000 -0.0000 6.6730 -20.1183 3.9975
7.8515 14.4906 0.0353 -172.3500 79.1976 -164.4590 0.0000 0.0000 0.0000 -14.3623 -22.7229 -33.4265 14.0391 19.1258 72.3238 1.8290 6.0295 -28.3033 2.1360 -9.1438 -26.2461 0.0000 0.0000 0.0000 27.1780 11.2876 -30.4616 -7.8540 -16.0108 52.0349 -1.8533 -6.6161 -28.8005 -3.0826 10.8276 -31.7007 3.6215 -2.1335 24.0058 3.4273 -0.8832 8.4882 1.8532 -0.0901 -4.0285 11.3193 5.4234 -12.9869 -17.0625 6.5022 -0.5478 -6.6965 2.8055 2.9716 -0.0000 -0.0000 0.0000 -84.8276 8.8529 25.0919 101.6746 -59.4787 -70.0928 -0.0000 0.0000 -35.6261 38.4049 18.0253 13.7825 -7.1250 0.0000 -0.0000 10.7613 52.2139 1.9294 -0.0000 -0.0000 0.0000 68.0532 -9.0525 42.7215 -66.7441 57.8544 -40.0049 0.0000 -0.0000 -16.4175 -16.8025 10.8402 -3.2504 7.1250 -0.0000 -0.0000 7.2441 -18.7186 4.5728
8.0331 14.3872 -0.0064 -167.1200 79.8328 -159.4290 0.0000 0.0000 0.0000 -13.1764 -22.5974 -35.5879 14.4968 19.2578 73.7160 1.8141 5.8692 -28.1137 2.0410 -8.9510 -25.6421 0.0000 0.0000 0.0000 28.0054 11.0866 -30.4324 -8.2995 -16.3352 53.6344 -1.9435 -5.5245 -28.7849 -3.1858 10.9899 -32.2458 4.4690 -2.1725 24.3349 3.9139 -0.6701 8.3709 1.8516 0.0174 -4.3227 11.8479 5.9021 -12.6637 -18.1544 7.1345 -0.9643 -7.0898 3.1227 2.9678 0.0000 -0.0000 0.0000 -87.0428 9.8173 23.8237 102.0520 -59.4440 -70.4178 -0.0000 0.0000 -39.4945 39.8435 19.2580 15.3881 -7.1250 0.0000 -0.0000 12.4079 54.0183 2.7834 0.0000 -0.0000 0.0000 64.8659 -5.9410 42.8445 -68.5777 58.1929 -41.5603 0.0000 -0.0000 -14.8204 -16.0959 12.1354 -3.4714 7.1250 -0.0000 -0.0000 7.7357 -17.4347 5.1096
8.2246 14.3043 -0.0622 -160.9280 80.4920 -153.4210 0.0000 0.0000 0.0000 -12.1322 -22.1640 -37.8488 14.8940 19.3631 74.9174 1.7911 5.5113 -27.7605 1.9189 -8.6950 -24.8459 0.0000 0.0000 0.0000 28.8218 10.8234 -30.0776 -8.6362 -16.5678 54.8233 -1.9584 -4.8340 -28.5233 -3.3188 11.1940 -32.9370 5.4907 -2.3032 24.5263 4.2509 -0.5543 8.1935 1.6141 0.0731 -4.6150 12.4714 6.4293 -12.2705 -19.0935 7.8225 -1.2835 -7.4460 3.4716 2.9969 0.0000 -0.0000 0.0000 -89.0950 12.0011 21.6074 102.5281 -59.3986 -70.8277 -0.0000 0.0000 -41.5657 40.3286 17.3436 14.2013 -7.1250 0.0000 -0.0000 12.8176 51.8075 2.1784 0.0000 -0.0000 0.0000 61.2960 -2.2574 41.8368 -70.9573 58.5845 -43.5869 0.0000 -0.0000 -12.9651 -15.0239 12.1986 -3.2459 7.1250 -0.0000 -0.0000 8.4805 -17.4467 5.6098
8.4241 14.2404 -0.1247 -153.3370 81.2439 -145.8600 0.0000 0.0000 0.0000 -11.1434 -21.4730 -40.3924 15.2292 19.4453 75.9261 1.7704 5.0699 -27.3803 1.8559 -8.5592 -24.4257 0.0000 0.0000 0.0000 29.6367 10.8019 -29.5007 -8.8532 -16.7123 55.5809 -1.9781 -4.2314 -28.3536 -3.2426 11.0778 -32.5426 6.5286 -2.3906 24.4068 4.4758 -0.4234 7.9959 1.2365 0.1302 -4.7723 12.7591 6.9417 -12.3827 -19.4023 8.5222 -0.9906 -7.5215 3.7937 3.2452 0.0000 0.0000 0.0000 -90.7457 15.1742 19.3853 103.1943 -59.3319 -71.4010 -0.0000 0.0000 -42.0101 39.2791 15.7146 12.4905 -7.1250 0.0000 -0.0000 11.5819 49.6005 1.3296 0.0000 0.0000 0.0000 56.5113 1.5781 40.5217 -72.4346 58.8015 -44.8491 0.0000 -0.0000 -12.8727 -14.6306 11.9227 -3.0870 7.1250 -0.0000 -0.0000 8.7566 -17.7546 5.7369
